Coordinates
version=1
nRows=17
nColumns=38
inDegrees=no

Units are S.I. units (second, meters, Newtons, ...)
If the header above contains a line with 'inDegrees', this indicates whether rotational values are in degrees (yes) or radians (no).

endheader
time	pelvis_tilt	pelvis_list	pelvis_rotation	pelvis_tx	pelvis_ty	pelvis_tz	hip_flexion_r	hip_adduction_r	hip_rotation_r	knee_angle_r	ankle_angle_r	subtalar_angle_r	mtp_angle_r	hip_flexion_l	hip_adduction_l	hip_rotation_l	knee_angle_l	ankle_angle_l	subtalar_angle_l	mtp_angle_l	lumbar_extension	lumbar_bending	lumbar_rotation	arm_flex_r	arm_add_r	arm_rot_r	elbow_flex_r	pro_sup_r	wrist_flex_r	wrist_dev_r	arm_flex_l	arm_add_l	arm_rot_l	elbow_flex_l	pro_sup_l	wrist_flex_l	wrist_dev_l
0	3.07595	1.14963	-1.43084	0.815323	-0.598163	0.95375	-0.47677	0.0941543	-0.236226	0.274978	-0.157531	0	0	0.0981004	-0.143557	-0.230848	0.878448	-0.251526	0	0	-0.481988	0.0955126	0.272883	-0.133567	-0.797092	-0.065987	1.64353	0.52191	0	0	0.575336	-0.494537	0.640607	1.13832	0.765414	0	0
0.01	3.0701	1.15856	-1.42068	0.81455	-0.588382	0.952111	-0.480954	0.0984116	-0.236041	0.269891	-0.154343	0	0	0.102048	-0.135975	-0.230364	0.8073	-0.244559	0	0	-0.47271	0.099038	0.26892	-0.132646	-0.794958	-0.0689846	1.64402	0.52262	0	0	0.576124	-0.495048	0.640567	1.13808	0.76719	0	0
0.02	3.06508	1.16752	-1.41134	0.813822	-0.578196	0.950297	-0.484945	0.101608	-0.235853	0.267129	-0.149436	0	0	0.102131	-0.127922	-0.228579	0.730134	-0.238588	0	0	-0.46244	0.101496	0.264315	-0.130265	-0.791902	-0.069804	1.64262	0.526267	0	0	0.575736	-0.49486	0.639153	1.13772	0.7683	0	0
0.03	3.05983	1.17772	-1.40096	0.812944	-0.567943	0.948277	-0.486677	0.104538	-0.237569	0.266313	-0.143263	0	0	0.0995476	-0.116216	-0.216709	0.644112	-0.234185	0	0	-0.450484	0.104157	0.258891	-0.127774	-0.789378	-0.0696708	1.64075	0.530279	0	0	0.576082	-0.495722	0.639661	1.13714	0.772517	0	0
0.04	3.05112	1.18965	-1.3874	0.812026	-0.557784	0.946199	-0.485292	0.108444	-0.235588	0.267316	-0.136173	0	0	0.0917976	-0.100102	-0.186139	0.542377	-0.23195	0	0	-0.437186	0.106994	0.254062	-0.126083	-0.78582	-0.0709843	1.63842	0.535466	0	0	0.575493	-0.49633	0.638183	1.13796	0.773648	0	0
0.05	3.03472	1.20686	-1.36734	0.810596	-0.547129	0.943867	-0.476459	0.112111	-0.231495	0.272611	-0.127966	0	0	0.0772316	-0.0801402	-0.128718	0.41519	-0.236675	0	0	-0.416663	0.112243	0.249208	-0.125087	-0.782503	-0.0707953	1.63445	0.542194	0	0	0.570089	-0.493861	0.632517	1.13657	0.774501	0	0
0.06	3.02324	1.21649	-1.35078	0.809388	-0.536412	0.941621	-0.477097	0.116183	-0.231584	0.275941	-0.120954	0	0	0.067163	-0.0733847	-0.112668	0.325277	-0.24521	0	0	-0.403826	0.116427	0.24422	-0.125446	-0.780851	-0.0715823	1.63336	0.545041	0	0	0.569776	-0.493639	0.633052	1.13579	0.776461	0	0
0.07	3.01194	1.22447	-1.33478	0.808039	-0.525544	0.939486	-0.479199	0.119631	-0.232504	0.280234	-0.115135	0	0	0.0577421	-0.0689632	-0.106438	0.24863	-0.255438	0	0	-0.392465	0.120674	0.239429	-0.126274	-0.779827	-0.072323	1.63274	0.546849	0	0	0.568696	-0.49319	0.63271	1.13556	0.775967	0	0
0.08	3.00008	1.23106	-1.31928	0.806759	-0.514671	0.937607	-0.482194	0.122808	-0.232333	0.285112	-0.111766	0	0	0.04762	-0.0656657	-0.104015	0.180865	-0.267001	0	0	-0.382615	0.12495	0.235182	-0.126153	-0.778846	-0.0721295	1.63181	0.548189	0	0	0.567457	-0.492379	0.631807	1.13437	0.776837	0	0
0.09	2.98986	1.23748	-1.3054	0.805437	-0.503579	0.935771	-0.484823	0.125078	-0.231	0.291294	-0.109794	0	0	0.0372051	-0.0625903	-0.0995419	0.12069	-0.27996	0	0	-0.372471	0.128366	0.23044	-0.126021	-0.777033	-0.0716154	1.63032	0.55091	0	0	0.566453	-0.492681	0.632088	1.13312	0.781089	0	0
0.1	2.97907	1.24279	-1.29104	0.804051	-0.492304	0.933939	-0.488257	0.127404	-0.229509	0.297656	-0.109035	0	0	0.0287109	-0.0615184	-0.0944726	0.077022	-0.289315	0	0	-0.363239	0.131913	0.22568	-0.126369	-0.775156	-0.0714394	1.62926	0.553831	0	0	0.564473	-0.493185	0.631153	1.13367	0.782364	0	0
0.11	2.97173	1.24588	-1.28042	0.802602	-0.480959	0.932252	-0.493521	0.128643	-0.227557	0.305085	-0.109264	0	0	0.0236341	-0.0614119	-0.0935478	0.0599577	-0.293345	0	0	-0.356703	0.134671	0.221455	-0.127482	-0.773839	-0.0719358	1.62915	0.555307	0	0	0.563102	-0.494038	0.630657	1.13499	0.7832	0	0
0.12	2.97258	1.24675	-1.27834	0.801185	-0.469516	0.930847	-0.500375	0.127254	-0.226002	0.3153	-0.110886	0	0	0.0198802	-0.0597008	-0.0945638	0.0683456	-0.296137	0	0	-0.353116	0.135088	0.217311	-0.128539	-0.772365	-0.0722983	1.62932	0.556076	0	0	0.562684	-0.494962	0.631062	1.13569	0.784755	0	0
0.13	2.98164	1.24583	-1.28509	0.799812	-0.457956	0.929721	-0.508545	0.123005	-0.226522	0.327186	-0.114791	0	0	0.015883	-0.0557411	-0.0961349	0.096115	-0.296882	0	0	-0.352371	0.132526	0.214156	-0.131077	-0.77028	-0.0744391	1.63008	0.556199	0	0	0.563283	-0.496337	0.632308	1.13722	0.784933	0	0
0.14	2.99506	1.24346	-1.29797	0.798523	-0.446356	0.928798	-0.516678	0.116616	-0.223972	0.342163	-0.120412	0	0	0.00963871	-0.0504134	-0.0970469	0.127462	-0.294102	0	0	-0.354132	0.128138	0.213206	-0.134625	-0.768526	-0.0779365	1.6316	0.556079	0	0	0.565283	-0.498505	0.635603	1.13975	0.784606	0	0
0.15	3.01267	1.24089	-1.31544	0.797142	-0.434577	0.928036	-0.523599	0.10826	-0.220706	0.359748	-0.127109	0	0	0.00170808	-0.0428392	-0.097881	0.150913	-0.291624	0	0	-0.35647	0.122345	0.212737	-0.139379	-0.767138	-0.0819068	1.63384	0.556022	0	0	0.567533	-0.500689	0.639587	1.14218	0.784792	0	0
0.16	3.02986	1.24009	-1.33253	0.79569	-0.422677	0.927397	-0.523599	0.0992399	-0.21557	0.381413	-0.135461	0	0	-0.00509281	-0.0346169	-0.0986644	0.163088	-0.298869	0	0	-0.357258	0.116073	0.212326	-0.145706	-0.765083	-0.086833	1.63638	0.556122	0	0	0.56881	-0.50211	0.642634	1.14449	0.784139	0	0
